<?xml version="1.0" standalone="no"?><!DOCTYPE svg PUBLIC "-//W3C//DTD SVG 1.1//EN" "http://www.w3.org/Graphics/SVG/1.1/DTD/svg11.dtd"><svg t="1614320781237" class="icon" viewBox="0 0 1024 1024" version="1.1" xmlns="http://www.w3.org/2000/svg" p-id="10115" xmlns:xlink="http://www.w3.org/1999/xlink" width="32" height="32"><defs><style type="text/css"></style></defs><path d="M354.5088 587.61216h314.9824a93.47072 93.47072 0 0 1 93.47072 93.47072V1013.76H261.03808V681.08288a93.47072 93.47072 0 0 1 93.47072-93.47072z" fill="#AAB1BA" p-id="10116"></path><path d="M762.96192 1024a10.24 10.24 0 0 1-10.24-10.24V681.08288a83.31264 83.31264 0 0 0-83.23072-83.23072H354.5088a83.31264 83.31264 0 0 0-83.23072 83.23072V1013.76a10.24 10.24 0 0 1-20.48 0V681.08288a103.8336 103.8336 0 0 1 103.71072-103.71072h314.9824a103.8336 103.8336 0 0 1 103.71072 103.71072V1013.76a10.24 10.24 0 0 1-10.24 10.24z" fill="#1C1D21" p-id="10117"></path><path d="M342.528 1024a10.24 10.24 0 0 1-10.24-10.24V737.83296a10.24 10.24 0 0 1 20.48 0V1013.76a10.24 10.24 0 0 1-10.24 10.24zM681.472 1024a10.24 10.24 0 0 1-10.24-10.24V737.83296a10.24 10.24 0 0 1 20.48 0V1013.76a10.24 10.24 0 0 1-10.24 10.24z" fill="#1C1D21" p-id="10118"></path><path d="M344.39168 137.216m167.60832 0l0 0q167.60832 0 167.60832 167.60832l0 159.0272q0 167.60832-167.60832 167.60832l0 0q-167.60832 0-167.60832-167.60832l0-159.0272q0-167.60832 167.60832-167.60832Z" fill="#FDDF7F" p-id="10119"></path><path d="M288.4608 501.16608a10.24 10.24 0 0 1-10.24-10.24V282.3168a10.24 10.24 0 0 1 20.48 0v208.60928a10.24 10.24 0 0 1-10.24 10.24z" fill="#1C1D21" p-id="10120"></path><path d="M162.07872 532.2752a10.24 10.24 0 0 1-10.24-10.24v-91.50464a10.24 10.24 0 0 1 2.99008-7.22944L215.69536 362.496a10.24 10.24 0 0 1 7.22944-3.01056h121.46688a10.24 10.24 0 0 1 0 20.48h-117.22752l-54.84544 54.80448v87.26528a10.24 10.24 0 0 1-10.24 10.24z" fill="#1C1D21" p-id="10121"></path><path d="M225.28 379.94496H65.08544a10.24 10.24 0 0 1 0-20.48H225.28a10.24 10.24 0 0 1 0 20.48zM288.4608 292.5568H225.28a10.24 10.24 0 1 1 0-20.48h63.20128a10.24 10.24 0 0 1 0 20.48z" fill="#1C1D21" p-id="10122"></path><path d="M170.41408 282.3168a27.42272 27.40224 0 1 0 54.84544 0 27.42272 27.40224 0 1 0-54.84544 0Z" fill="#FDDF7F" p-id="10123"></path><path d="M197.8368 319.95904a37.64224 37.64224 0 1 1 37.6832-37.64224 37.6832 37.6832 0 0 1-37.6832 37.64224z m0-54.80448a17.16224 17.16224 0 1 0 17.18272 17.16224 17.2032 17.2032 0 0 0-17.18272-17.16224z" fill="#1C1D21" p-id="10124"></path><path d="M10.24 369.70496a27.42272 27.40224 0 1 0 54.84544 0 27.42272 27.40224 0 1 0-54.84544 0Z" fill="#FDDF7F" p-id="10125"></path><path d="M37.66272 407.36768a37.66272 37.66272 0 1 1 37.66272-37.66272 37.70368 37.70368 0 0 1-37.66272 37.66272z m0-54.82496a17.18272 17.18272 0 1 0 17.18272 17.16224 17.18272 17.18272 0 0 0-17.18272-17.16224z" fill="#1C1D21" p-id="10126"></path><path d="M134.92224 549.43744a27.42272 27.40224 0 1 0 54.84544 0 27.42272 27.40224 0 1 0-54.84544 0Z" fill="#FDDF7F" p-id="10127"></path><path d="M162.34496 587.10016a37.66272 37.66272 0 1 1 37.66272-37.66272 37.70368 37.70368 0 0 1-37.66272 37.66272z m0-54.82496a17.18272 17.18272 0 1 0 17.18272 17.16224 17.2032 17.2032 0 0 0-17.18272-17.16224z" fill="#1C1D21" p-id="10128"></path><path d="M261.03808 518.3488a27.42272 27.40224 0 1 0 54.84544 0 27.42272 27.40224 0 1 0-54.84544 0Z" fill="#FDDF7F" p-id="10129"></path><path d="M288.4608 555.99104a37.66272 37.66272 0 1 1 37.66272-37.66272 37.70368 37.70368 0 0 1-37.66272 37.66272z m0-54.82496a17.18272 17.18272 0 1 0 17.18272 17.16224 17.18272 17.18272 0 0 0-17.18272-17.16224zM735.5392 501.16608a10.24 10.24 0 0 1-10.24-10.24V282.3168a10.24 10.24 0 0 1 20.48 0v208.60928a10.24 10.24 0 0 1-10.24 10.24z" fill="#1C1D21" p-id="10130"></path><path d="M861.92128 532.2752a10.24 10.24 0 0 1-10.24-10.24v-87.26528l-54.84544-54.82496h-117.22752a10.24 10.24 0 0 1 0-20.48h121.46688a10.24 10.24 0 0 1 7.22944 3.01056l60.86656 60.8256a10.24 10.24 0 0 1 2.99008 7.22944v91.50464a10.24 10.24 0 0 1-10.24 10.24z" fill="#1C1D21" p-id="10131"></path><path d="M958.91456 379.94496H796.8768a10.24 10.24 0 0 1 0-20.48h162.03776a10.24 10.24 0 0 1 0 20.48zM798.72 292.5568h-63.1808a10.24 10.24 0 0 1-10.24-10.24V65.04448a10.24 10.24 0 1 1 20.48 0v207.03232H798.72a10.24 10.24 0 0 1 0 20.48z" fill="#1C1D21" p-id="10132"></path><path d="M798.74048 282.3168a27.42272 27.40224 0 1 0 54.84544 0 27.42272 27.40224 0 1 0-54.84544 0Z" fill="#FDDF7F" p-id="10133"></path><path d="M826.1632 319.95904a37.64224 37.64224 0 1 1 37.66272-37.64224 37.6832 37.6832 0 0 1-37.66272 37.64224z m0-54.80448a17.16224 17.16224 0 1 0 17.18272 17.16224 17.18272 17.18272 0 0 0-17.18272-17.16224z" fill="#1C1D21" p-id="10134"></path><path d="M708.11648 37.64224a27.42272 27.40224 0 1 0 54.84544 0 27.42272 27.40224 0 1 0-54.84544 0Z" fill="#FDDF7F" p-id="10135"></path><path d="M735.5392 75.28448a37.64224 37.64224 0 1 1 37.66272-37.64224 37.6832 37.6832 0 0 1-37.66272 37.64224z m0-54.80448a17.16224 17.16224 0 1 0 17.18272 17.16224 17.18272 17.18272 0 0 0-17.18272-17.16224z" fill="#1C1D21" p-id="10136"></path><path d="M958.91456 369.70496a27.42272 27.40224 0 1 0 54.84544 0 27.42272 27.40224 0 1 0-54.84544 0Z" fill="#FDDF7F" p-id="10137"></path><path d="M986.33728 407.36768A37.66272 37.66272 0 1 1 1024 369.70496a37.70368 37.70368 0 0 1-37.66272 37.66272z m0-54.82496a17.18272 17.18272 0 1 0 17.18272 17.16224 17.18272 17.18272 0 0 0-17.18272-17.16224zM895.52896 148.56192h-159.98976a10.24 10.24 0 1 1 0-20.48h159.98976a10.24 10.24 0 0 1 0 20.48z" fill="#1C1D21" p-id="10138"></path><path d="M895.52896 138.32192a27.42272 27.40224 0 1 0 54.84544 0 27.42272 27.40224 0 1 0-54.84544 0Z" fill="#FDDF7F" p-id="10139"></path><path d="M922.95168 175.96416a37.64224 37.64224 0 1 1 37.66272-37.64224 37.70368 37.70368 0 0 1-37.66272 37.64224z m0-54.80448a17.16224 17.16224 0 1 0 17.18272 17.16224 17.2032 17.2032 0 0 0-17.18272-17.16224zM288.4608 292.5568H225.28a10.24 10.24 0 1 1 0-20.48h52.96128V65.04448a10.24 10.24 0 1 1 20.48 0v217.27232a10.24 10.24 0 0 1-10.26048 10.24z" fill="#1C1D21" p-id="10140"></path><path d="M261.03808 37.64224a27.42272 27.40224 0 1 0 54.84544 0 27.42272 27.40224 0 1 0-54.84544 0Z" fill="#FDDF7F" p-id="10141"></path><path d="M288.4608 75.28448a37.64224 37.64224 0 1 1 37.66272-37.64224 37.6832 37.6832 0 0 1-37.66272 37.64224z m0-54.80448a17.16224 17.16224 0 1 0 17.18272 17.16224 17.18272 17.18272 0 0 0-17.18272-17.16224zM288.4608 148.56192H128.47104a10.24 10.24 0 0 1 0-20.48h159.98976a10.24 10.24 0 0 1 0 20.48z" fill="#1C1D21" p-id="10142"></path><path d="M73.6256 138.32192a27.42272 27.40224 0 1 0 54.84544 0 27.42272 27.40224 0 1 0-54.84544 0Z" fill="#FDDF7F" p-id="10143"></path><path d="M101.04832 175.96416a37.64224 37.64224 0 1 1 37.66272-37.64224 37.70368 37.70368 0 0 1-37.66272 37.64224z m0-54.80448a17.16224 17.16224 0 1 0 17.18272 17.16224 17.18272 17.18272 0 0 0-17.18272-17.16224z" fill="#1C1D21" p-id="10144"></path><path d="M834.23232 549.43744a27.42272 27.40224 0 1 0 54.84544 0 27.42272 27.40224 0 1 0-54.84544 0Z" fill="#FDDF7F" p-id="10145"></path><path d="M861.65504 587.10016a37.66272 37.66272 0 1 1 37.66272-37.66272 37.70368 37.70368 0 0 1-37.66272 37.66272z m0-54.82496a17.18272 17.18272 0 1 0 17.18272 17.16224 17.18272 17.18272 0 0 0-17.18272-17.16224z" fill="#1C1D21" p-id="10146"></path><path d="M708.11648 518.3488a27.42272 27.40224 0 1 0 54.84544 0 27.42272 27.40224 0 1 0-54.84544 0Z" fill="#FDDF7F" p-id="10147"></path><path d="M735.5392 555.99104a37.66272 37.66272 0 1 1 37.66272-37.66272 37.70368 37.70368 0 0 1-37.66272 37.66272z m0-54.82496a17.18272 17.18272 0 1 0 17.18272 17.16224 17.18272 17.18272 0 0 0-17.18272-17.16224zM512 641.69984a178.03264 178.03264 0 0 1-177.84832-177.82784v-159.04768a177.23392 177.23392 0 0 1 28.672-96.74752 10.24 10.24 0 0 1 17.18272 11.14112 156.79488 156.79488 0 0 0-25.2928 85.6064v159.04768a157.36832 157.36832 0 0 0 314.73664 0v-159.04768a157.42976 157.42976 0 0 0-233.472-137.74848 10.24 10.24 0 0 1-9.99424-17.92 177.90976 177.90976 0 0 1 263.92576 155.648v159.06816A178.03264 178.03264 0 0 1 512 641.69984z" fill="#1C1D21" p-id="10148"></path><path d="M395.6736 194.39616a10.24 10.24 0 0 1-7.10656-17.6128c2.62144-2.53952 5.36576-4.99712 8.192-7.35232a10.24 10.24 0 0 1 13.29152 15.58528c-2.43712 2.048-4.85376 4.25984-7.18848 6.51264a10.24 10.24 0 0 1-7.18848 2.8672zM638.64832 474.112a10.24 10.24 0 0 1-10.24-10.24v-153.25184a10.24 10.24 0 0 1 20.48 0v153.25184a10.24 10.24 0 0 1-10.24 10.24zM634.6752 283.58656a10.24 10.24 0 0 1-9.91232-7.68 117.1456 117.1456 0 0 0-40.96-62.58688 10.24 10.24 0 1 1 12.67712-16.09728 137.97376 137.97376 0 0 1 48.06656 73.58464 10.24 10.24 0 0 1-7.3728 12.47232 11.0592 11.0592 0 0 1-2.49856 0.3072zM564.36736 199.76192a10.24 10.24 0 0 1-4.23936-0.9216A115.11808 115.11808 0 0 0 512 188.416a10.24 10.24 0 0 1 0-20.48 135.41376 135.41376 0 0 1 56.6272 12.288 10.24 10.24 0 0 1-4.25984 19.5584zM385.35168 361.472a10.24 10.24 0 0 1-10.24-10.24v-46.40768a137.68704 137.68704 0 0 1 98.4064-131.3792 10.24 10.24 0 1 1 5.71392 19.64032 117.10464 117.10464 0 0 0-83.70176 111.73888v46.40768a10.24 10.24 0 0 1-10.17856 10.24zM512 600.73984a136.192 136.192 0 0 1-68.5056-18.432 10.24 10.24 0 1 1 10.24-17.69472 117.78048 117.78048 0 0 0 116.736-0.14336 10.24 10.24 0 1 1 10.24 17.67424 136.25344 136.25344 0 0 1-68.7104 18.59584zM385.35168 474.112a10.24 10.24 0 0 1-10.24-10.24v-71.68a10.24 10.24 0 0 1 20.48 0v71.68a10.24 10.24 0 0 1-10.24 10.24z" fill="#1C1D21" p-id="10149"></path><path d="M597.11488 305.152a10.24 10.24 0 0 1-10.24-9.07264 75.40736 75.40736 0 0 0-123.74016-48.82432 10.24 10.24 0 0 1-13.27104-15.60576 95.88736 95.88736 0 0 1 157.34784 62.09536 10.24 10.24 0 0 1-9.0112 11.34592 11.14112 11.14112 0 0 1-1.08544 0.06144zM426.31168 474.112a10.24 10.24 0 0 1-10.24-10.24v-159.04768a94.96576 94.96576 0 0 1 9.728-42.0864 10.24 10.24 0 1 1 18.432 9.0112 74.77248 74.77248 0 0 0-7.63904 33.0752v159.04768a10.24 10.24 0 0 1-10.28096 10.24z" fill="#1C1D21" p-id="10150"></path><path d="M512 518.81984a55.02976 55.02976 0 0 1-54.96832-54.94784v-159.04768a54.96832 54.96832 0 1 1 109.93664 0v159.04768A55.02976 55.02976 0 0 1 512 518.81984zM512 270.336a34.52928 34.52928 0 0 0-34.48832 34.48832v159.04768a34.48832 34.48832 0 0 0 68.97664 0v-159.04768A34.52928 34.52928 0 0 0 512 270.336z" fill="#1C1D21" p-id="10151"></path><path d="M556.87168 347.79136a10.24 10.24 0 0 1-10.24-10.24V304.9472a34.63168 34.63168 0 0 0-69.26336 0v32.60416a10.24 10.24 0 0 1-20.48 0V304.9472a55.11168 55.11168 0 0 1 110.22336 0v32.60416a10.24 10.24 0 0 1-10.24 10.24z" fill="#1C1D21" p-id="10152"></path><path d="M417.42336 339.8656m58.61376 0l71.92576 0q58.61376 0 58.61376 58.61376l0 75.38688q0 58.61376-58.61376 58.61376l-71.92576 0q-58.61376 0-58.61376-58.61376l0-75.38688q0-58.61376 58.61376-58.61376Z" fill="#83E1E5" p-id="10153"></path><path d="M547.96288 542.72h-71.92576a68.93568 68.93568 0 0 1-68.85376-68.85376v-75.40736A68.9152 68.9152 0 0 1 476.03712 329.728h71.92576a68.9152 68.9152 0 0 1 68.85376 68.83328v75.40736A68.93568 68.93568 0 0 1 547.96288 542.72z m-71.92576-192.512a48.41472 48.41472 0 0 0-48.37376 48.35328v75.40736A48.41472 48.41472 0 0 0 476.03712 522.24h71.92576a48.41472 48.41472 0 0 0 48.37376-48.37376v-75.40736A48.41472 48.41472 0 0 0 547.96288 350.208z" fill="#1C1D21" p-id="10154"></path><path d="M480.91136 415.4368a31.08864 31.06816 0 1 0 62.17728 0 31.08864 31.06816 0 1 0-62.17728 0Z" fill="#AAB1BA" p-id="10155"></path><path d="M512 456.704a41.30816 41.30816 0 1 1 41.32864-41.30816A41.3696 41.3696 0 0 1 512 456.704z m0-62.13632a20.82816 20.82816 0 1 0 20.84864 20.82816A20.86912 20.86912 0 0 0 512 394.60864z" fill="#1C1D21" p-id="10156"></path><path d="M512 495.75936a10.24 10.24 0 0 1-10.24-10.24V446.464a10.24 10.24 0 1 1 20.48 0v38.912a10.24 10.24 0 0 1-10.24 10.38336z" fill="#1C1D21" p-id="10157"></path></svg>